<?xml version="1.0" encoding="UTF-8" standalone="no"?>
<svg
   viewBox="0 0 744.09447 1052.362179"
   version="1.1"
   id="svg356"
   sodipodi:docname="rain-153920.svg"
   inkscape:version="1.2.1 (9c6d41e410, 2022-07-14)"
   xmlns:inkscape="http://www.inkscape.org/namespaces/inkscape"
   xmlns:sodipodi="http://sodipodi.sourceforge.net/DTD/sodipodi-0.dtd"
   xmlns="http://www.w3.org/2000/svg"
   xmlns:svg="http://www.w3.org/2000/svg">
  <sodipodi:namedview
     id="namedview358"
     pagecolor="#ffffff"
     bordercolor="#000000"
     borderopacity="0.25"
     inkscape:showpageshadow="2"
     inkscape:pageopacity="0.0"
     inkscape:pagecheckerboard="0"
     inkscape:deskcolor="#d1d1d1"
     showgrid="false"
     inkscape:zoom="0.70710678"
     inkscape:cx="401.63665"
     inkscape:cy="330.21887"
     inkscape:window-width="958"
     inkscape:window-height="981"
     inkscape:window-x="-8"
     inkscape:window-y="0"
     inkscape:window-maximized="0"
     inkscape:current-layer="svg356" />
  <defs
     id="defs156">
    <filter
       id="h"
       x="-0.061544263"
       y="-0.058532108"
       width="1.1230885"
       height="1.1170642">
      <feGaussianBlur
         stdDeviation="2.0404"
         id="feGaussianBlur132" />
    </filter>
    <filter
       id="b"
       x="-0.059017426"
       y="-0.061016467"
       width="1.1180349"
       height="1.1220329">
      <feGaussianBlur
         stdDeviation="1.00397"
         id="feGaussianBlur135" />
    </filter>
    <filter
       id="g"
       x="-0.060446467"
       y="-0.059558889"
       width="1.1208929"
       height="1.1191178">
      <feGaussianBlur
         stdDeviation="5.6457"
         id="feGaussianBlur138" />
    </filter>
    <filter
       id="f"
       x="-0.060000282"
       y="-0.060000282"
       width="1.1200006"
       height="1.1200006">
      <feGaussianBlur
         stdDeviation="1.60043"
         id="feGaussianBlur141" />
    </filter>
    <filter
       id="e"
       x="-0.061014995"
       y="-0.05901703"
       width="1.12203"
       height="1.1180341">
      <feGaussianBlur
         stdDeviation="2.18213"
         id="feGaussianBlur144" />
    </filter>
    <filter
       id="d"
       x="-0.059017208"
       y="-0.061015014"
       width="1.1180344"
       height="1.12203">
      <feGaussianBlur
         stdDeviation="2.32936"
         id="feGaussianBlur147" />
    </filter>
    <filter
       id="c"
       x="-0.044081369"
       y="-0.093913807"
       width="1.0881627"
       height="1.1878276">
      <feGaussianBlur
         stdDeviation="11.60352"
         id="feGaussianBlur150" />
    </filter>
    <filter
       id="a"
       x="-0.091261413"
       y="-0.050697141"
       width="1.1825228"
       height="1.1013943">
      <feGaussianBlur
         stdDeviation="3.67063"
         id="feGaussianBlur153" />
    </filter>
  </defs>
  <path
     transform="translate(77.182 -343.23)"
     d="m383.31 602.53-7.267 21.43 13.533 18.135-22.626-0.28921-13.066 18.475-6.7169-21.608-21.608-6.7169 18.475-13.066-0.28921-22.626 18.135 13.533 21.43-7.267z"
     fill="#babdb6"
     filter="url(#f)"
     id="path158" />
  <path
     transform="translate(505.58 -294.01)"
     d="m154.45 579.95-20.462-23.318-30.809 3.6368 15.854-26.666-12.979-28.177 30.26 6.8373 22.787-21.051 2.8482 30.892 27.063 15.167-28.5 12.255-6.0616 30.425z"
     fill="#babdb6"
     filter="url(#e)"
     id="path164" />
  <path
     transform="translate(497.58 -302.01)"
     d="m154.45 579.95-20.462-23.318-30.809 3.6368 15.854-26.666-12.979-28.177 30.26 6.8373 22.787-21.051 2.8482 30.892 27.063 15.167-28.5 12.255-6.0616 30.425z"
     fill="#fce94f"
     stroke="#000"
     stroke-linejoin="round"
     stroke-width="4"
     id="path166" />
  <path
     transform="translate(302.02 -403.1)"
     d="m343.52 523.79-32.478 6.4706-13.082 30.423-16.19-28.889-32.976-3.0404 22.472-24.325-7.2986-32.302 30.078 13.855 28.465-16.923-3.8822 32.888 24.891 21.843z"
     fill="#babdb6"
     filter="url(#d)"
     id="path168" />
  <path
     transform="translate(294.02 -411.1)"
     d="m343.52 523.79-32.478 6.4706-13.082 30.423-16.19-28.889-32.976-3.0404 22.472-24.325-7.2986-32.302 30.078 13.855 28.465-16.923-3.8822 32.888 24.891 21.843z"
     fill="#fce94f"
     stroke="#000"
     stroke-linejoin="round"
     stroke-width="4"
     id="path170" />
  <path
     transform="translate(69.182 -351.23)"
     d="m383.31 602.53-7.267 21.43 13.533 18.135-22.626-0.28921-13.066 18.475-6.7169-21.608-21.608-6.7169 18.475-13.066-0.28921-22.626 18.135 13.533 21.43-7.267z"
     fill="#fce94f"
     stroke="#000"
     stroke-linejoin="round"
     stroke-width="4"
     id="path172" />
  <path
     transform="translate(222.2 -593.35)"
     d="m225.65 676.94-10.728 9.4143 1.6732 14.175-12.269-7.294-12.964 5.9716 3.1458-13.922-9.6854-10.484 14.213-1.3104 6.978-12.451 5.6383 13.112 13.998 2.7889z"
     fill="#babdb6"
     filter="url(#b)"
     id="path174" />
  <path
     transform="translate(214.2 -601.35)"
     d="m225.65 676.94-10.728 9.4143 1.6732 14.175-12.269-7.294-12.964 5.9716 3.1458-13.922-9.6854-10.484 14.213-1.3104 6.978-12.451 5.6383 13.112 13.998 2.7889z"
     fill="#fce94f"
     stroke="#000"
     stroke-linejoin="round"
     stroke-width="4"
     id="path176" />
  <path
     transform="translate(-46.547 -615.97)"
     d="m320.55 786.28 26.192-12.927 4.2001-28.905 20.388 20.916 28.788-4.9376-13.592 25.853 13.592 25.853-28.788-4.9376-20.388 20.916-4.2001-28.905-26.192-12.927z"
     fill="#babdb6"
     filter="url(#h)"
     id="path178" />
  <path
     transform="translate(-54.547 -623.97)"
     d="m320.55 786.28 26.192-12.927 4.2001-28.905 20.388 20.916 28.788-4.9376-13.592 25.853 13.592 25.853-28.788-4.9376-20.388 20.916-4.2001-28.905-26.192-12.927z"
     fill="#fce94f"
     stroke="#000"
     stroke-linejoin="round"
     stroke-width="4"
     id="path180" />
  <path
     transform="translate(104.77 -417.35)"
     d="m225.65 676.94-10.728 9.4143 1.6732 14.175-12.269-7.294-12.964 5.9716 3.1458-13.922-9.6854-10.484 14.213-1.3104 6.978-12.451 5.6383 13.112 13.998 2.7889z"
     fill="#babdb6"
     filter="url(#b)"
     id="path182" />
  <path
     transform="translate(96.773 -425.35)"
     d="m225.65 676.94-10.728 9.4143 1.6732 14.175-12.269-7.294-12.964 5.9716 3.1458-13.922-9.6854-10.484 14.213-1.3104 6.978-12.451 5.6383 13.112 13.998 2.7889z"
     fill="#fce94f"
     stroke="#000"
     stroke-linejoin="round"
     stroke-width="4"
     id="path184" />
  <path
     transform="translate(281.72 -495.84)"
     d="m225.65 676.94-10.728 9.4143 1.6732 14.175-12.269-7.294-12.964 5.9716 3.1458-13.922-9.6854-10.484 14.213-1.3104 6.978-12.451 5.6383 13.112 13.998 2.7889z"
     fill="#babdb6"
     filter="url(#b)"
     id="path186" />
  <path
     transform="translate(273.72 -503.84)"
     d="m225.65 676.94-10.728 9.4143 1.6732 14.175-12.269-7.294-12.964 5.9716 3.1458-13.922-9.6854-10.484 14.213-1.3104 6.978-12.451 5.6383 13.112 13.998 2.7889z"
     fill="#fce94f"
     stroke="#000"
     stroke-linejoin="round"
     stroke-width="4"
     id="path188" />
  <path
     transform="translate(36.922 -594.96)"
     d="m225.65 676.94-10.728 9.4143 1.6732 14.175-12.269-7.294-12.964 5.9716 3.1458-13.922-9.6854-10.484 14.213-1.3104 6.978-12.451 5.6383 13.112 13.998 2.7889z"
     fill="#babdb6"
     filter="url(#b)"
     id="path190" />
  <path
     transform="translate(28.922 -600.96)"
     d="m225.65 676.94-10.728 9.4143 1.6732 14.175-12.269-7.294-12.964 5.9716 3.1458-13.922-9.6854-10.484 14.213-1.3104 6.978-12.451 5.6383 13.112 13.998 2.7889z"
     fill="#fce94f"
     stroke="#000"
     stroke-linejoin="round"
     stroke-width="4"
     id="path192" />
  <g
     transform="translate(-1.0959e-8 -160.98)"
     id="g204">
    <path
       d="m505.56 384.5c-21.196 0-39.758 11.544-50.031 28.812-6.7013-3.1168-14.046-4.8438-21.781-4.8438-17.946 0-33.931 9.2711-44.156 23.688-9.4911-13.738-23.162-22.375-38.344-22.375-23.899 0-44.016 21.388-50.031 50.438-7.9954-5.8331-17.245-9.1875-27.125-9.1875-12.974 0-24.884 5.7708-34.25 15.375-5.6642-4.4153-13.257-7.125-21.625-7.125-14.077 0-26.007 7.6433-30.125 18.219-3.8707-1.7699-8.077-2.75-12.469-2.75-16.423 0-30.181 13.583-33.844 31.812-5.0218-1.4935-10.412-2.3125-16.031-2.3125-26.805 0-48.562 18.484-48.562 41.25 0 10.554 4.6882 20.172 12.375 27.469-16.214 5.8732-26.812 15.515-26.812 26.406 0 13.831 17.071 25.639 41.062 30.281 1.5402 19.874 22.396 35.656 47.875 35.656 7.484 0 14.561-1.3571 20.875-3.7812 9.0795 11.832 23.466 19.5 39.656 19.5 15.987 0 30.216-7.4831 39.312-19.062 10.346 10.177 25.263 16.562 41.844 16.562 14.706 0 28.096-5.0132 38.156-13.25 7.9934 8.976 19.229 14.594 31.688 14.594 13.258 0 25.135-6.3707 33.188-16.375 8.1082 6.9102 18.29 11.031 29.344 11.031 11.789 0 22.59-4.6784 30.938-12.438 7.3616 4.5176 15.868 7.125 24.938 7.125 14.31 0 27.237-6.4291 36.438-16.75 11.56 9.4752 28.223 15.406 46.719 15.406 26.562 0 49.282-12.262 58.625-29.625 5.2217 1.1154 10.761 1.6875 16.531 1.6875 30.11 0 54.562-16.367 54.562-36.562 0-15.304-14.037-28.418-33.938-33.875 5.355-7.0693 8.6562-16.716 8.6562-27.344 0-21.665-13.703-39.25-30.594-39.25-4.0164 0-7.86 1.0057-11.375 2.8125 4.6488-8.8219 7.375-19.393 7.375-30.75 0-30.844-19.96-55.875-44.562-55.875-10.347 0-19.871 4.4495-27.438 11.875-5.9579-26.599-29.256-46.469-57.062-46.469z"
       fill="#888a85"
       filter="url(#c)"
       id="path194" />
    <path
       d="m497.56 376.5c-21.196 0-39.758 11.544-50.031 28.812-6.7013-3.1168-14.046-4.8438-21.781-4.8438-17.946 0-33.931 9.2711-44.156 23.688-9.4911-13.738-23.162-22.375-38.344-22.375-23.899 0-44.016 21.388-50.031 50.438-7.9954-5.8331-17.245-9.1875-27.125-9.1875-12.974 0-24.884 5.7708-34.25 15.375-5.6642-4.4153-13.257-7.125-21.625-7.125-14.077 0-26.007 7.6433-30.125 18.219-3.8707-1.7699-8.077-2.75-12.469-2.75-16.423 0-30.181 13.583-33.844 31.812-5.0218-1.4935-10.412-2.3125-16.031-2.3125-26.805 0-48.562 18.484-48.562 41.25 0 10.554 4.6882 20.172 12.375 27.469-16.214 5.8732-26.812 15.515-26.812 26.406 0 13.831 17.071 25.639 41.062 30.281 1.5402 19.874 22.396 35.656 47.875 35.656 7.484 0 14.561-1.3571 20.875-3.7812 9.0795 11.832 23.466 19.5 39.656 19.5 15.987 0 30.216-7.4831 39.312-19.062 10.346 10.177 25.263 16.562 41.844 16.562 14.706 0 28.096-5.0132 38.156-13.25 7.9934 8.976 19.229 14.594 31.688 14.594 13.258 0 25.135-6.3707 33.188-16.375 8.1082 6.9102 18.29 11.031 29.344 11.031 11.789 0 22.59-4.6784 30.938-12.438 7.3616 4.5176 15.868 7.125 24.938 7.125 14.31 0 27.237-6.4291 36.438-16.75 11.56 9.4752 28.223 15.406 46.719 15.406 26.562 0 49.282-12.262 58.625-29.625 5.2217 1.1154 10.761 1.6875 16.531 1.6875 30.11 0 54.562-16.367 54.562-36.562 0-15.304-14.037-28.418-33.938-33.875 5.355-7.0693 8.6562-16.716 8.6562-27.344 0-21.665-13.703-39.25-30.594-39.25-4.0164 0-7.86 1.0057-11.375 2.8125 4.6488-8.8219 7.375-19.393 7.375-30.75 0-30.844-19.96-55.875-44.562-55.875-10.347 0-19.871 4.4495-27.438 11.875-5.9579-26.599-29.256-46.469-57.062-46.469z"
       fill="#3465a4"
       stroke="#000"
       stroke-linejoin="round"
       stroke-width="4"
       id="path196" />
    <path
       d="m679 574.41c0.04051 0.57794 0.0625 1.1654 0.0625 1.75-2e-5 20.196-24.452 36.563-54.562 36.562-5.7705 0-11.31-0.57207-16.531-1.6875-9.3433 17.363-32.063 29.625-58.625 29.625-18.496-1e-5 -35.159-5.931-46.719-15.406-9.2002 10.321-22.128 16.75-36.438 16.75-9.069-1e-5 -17.576-2.6074-24.938-7.125-8.3472 7.7591-19.149 12.438-30.938 12.438-11.054 0-21.236-4.1211-29.344-11.031-8.0523 10.004-19.93 16.375-33.188 16.375-12.458 0-23.694-5.6178-31.688-14.594-10.06 8.2368-23.451 13.25-38.156 13.25-16.581 0-31.498-6.3857-41.844-16.562-9.0967 11.579-23.325 19.062-39.312 19.062-16.191 0-30.577-7.6678-39.656-19.5-6.3144 2.4242-13.391 3.7813-20.875 3.7812-16.955-1e-5 -31.844-6.9985-40.375-17.531 2.4348 19.17 22.877 34.156 47.719 34.156 7.484-1e-5 14.561-1.3571 20.875-3.7812 9.0795 11.832 23.466 19.5 39.656 19.5 15.987-1e-5 30.216-7.4831 39.312-19.062 10.346 10.177 25.263 16.562 41.844 16.562 14.706-1e-5 28.096-5.0132 38.156-13.25 7.9934 8.976 19.229 14.594 31.688 14.594 13.258-1e-5 25.135-6.3707 33.188-16.375 8.1082 6.9102 18.29 11.031 29.344 11.031 11.789-1e-5 22.59-4.6784 30.938-12.438 7.3616 4.5175 15.868 7.125 24.938 7.125 14.31-1e-5 27.237-6.4291 36.438-16.75 11.56 9.4752 28.223 15.406 46.719 15.406 26.562-1e-5 49.282-12.262 58.625-29.625 5.2217 1.1154 10.761 1.6875 16.531 1.6875 30.11-1e-5 54.562-16.367 54.562-36.562 0-6.709-2.6997-12.968-7.4062-18.375zm-584.56 44.25c-0.03465 0.03814-0.05895 0.087-0.09375 0.125l0.1875 0.03125c-0.03538-0.04935-0.05864-0.10676-0.09375-0.15625z"
       fill="#204a87"
       id="path198" />
    <path
       d="m618.25 495.73c-4.1222 3.0784-8.5842 5.8282-13.344 8.1875 3.5082-1.7987 7.3369-2.8125 11.344-2.8125 16.891-3e-5 30.594 17.585 30.594 39.25-2e-5 10.627-3.3013 20.274-8.6562 27.344 19.9 5.4574 33.937 18.571 33.938 33.875-2e-5 10.997-7.2529 20.86-18.719 27.562 18.168-5.9332 30.687-18.417 30.688-32.875-1e-5 -15.304-14.037-28.418-33.938-33.875 5.355-7.0693 8.6562-16.716 8.6562-27.344-1e-5 -21.665-13.703-39.25-30.594-39.25-4.0164-1e-5 -7.86 1.0057-11.375 2.8125 0.49438-0.93818 0.95632-1.8984 1.4062-2.875z"
       fill="#204a87"
       id="path200" />
    <path
       d="m497.56 376.5c-21.196 0-39.758 11.544-50.031 28.812-6.7013-3.1168-14.046-4.8438-21.781-4.8438-17.946 0-33.931 9.2711-44.156 23.688-9.4911-13.738-23.162-22.375-38.344-22.375-23.899 0-44.016 21.388-50.031 50.438-7.9954-5.8331-17.245-9.1875-27.125-9.1875-12.974 0-24.884 5.7708-34.25 15.375-5.6642-4.4153-13.257-7.125-21.625-7.125-14.077 0-26.007 7.6433-30.125 18.219-3.8707-1.7699-8.077-2.75-12.469-2.75-16.423 0-30.181 13.583-33.844 31.812-5.0218-1.4935-10.412-2.3125-16.031-2.3125-26.805 0-48.562 18.484-48.562 41.25 0 10.554 4.6882 20.172 12.375 27.469-16.214 5.8732-26.812 15.515-26.812 26.406 0 13.831 17.071 25.639 41.062 30.281 1.5402 19.874 22.396 35.656 47.875 35.656 7.484 0 14.561-1.3571 20.875-3.7812 9.0795 11.832 23.466 19.5 39.656 19.5 15.987 0 30.216-7.4831 39.312-19.062 10.346 10.177 25.263 16.562 41.844 16.562 14.706 0 28.096-5.0132 38.156-13.25 7.9934 8.976 19.229 14.594 31.688 14.594 13.258 0 25.135-6.3707 33.188-16.375 8.1082 6.9102 18.29 11.031 29.344 11.031 11.789 0 22.59-4.6784 30.938-12.438 7.3616 4.5176 15.868 7.125 24.938 7.125 14.31 0 27.237-6.4291 36.438-16.75 11.56 9.4752 28.223 15.406 46.719 15.406 26.562 0 49.282-12.262 58.625-29.625 5.2217 1.1154 10.761 1.6875 16.531 1.6875 30.11 0 54.562-16.367 54.562-36.562 0-15.304-14.037-28.418-33.938-33.875 5.355-7.0693 8.6562-16.716 8.6562-27.344 0-21.665-13.703-39.25-30.594-39.25-4.0164 0-7.86 1.0057-11.375 2.8125 4.6488-8.8219 7.375-19.393 7.375-30.75 0-30.844-19.96-55.875-44.562-55.875-10.347 0-19.871 4.4495-27.438 11.875-5.9579-26.599-29.256-46.469-57.062-46.469z"
       fill="none"
       stroke="#000"
       stroke-linejoin="round"
       stroke-width="4"
       id="path202" />
  </g>
</svg>
